<?xml version="1.0" standalone="no"?>
<!DOCTYPE svg PUBLIC "-//W3C//DTD SVG 20010904//EN"
 "http://www.w3.org/TR/2001/REC-SVG-20010904/DTD/svg10.dtd">
<svg version="1.0" xmlns="http://www.w3.org/2000/svg"
 width="95.000000pt" height="95.000000pt" viewBox="0 0 95.000000 95.000000"
 preserveAspectRatio="xMidYMid meet">
<metadata>
Created by potrace 1.14, written by Peter Selinger 2001-2017
</metadata>
<g transform="translate(0.000000,95.000000) scale(0.100000,-0.100000)"
fill="#000000" stroke="none">
<path d="M555 814 c-40 -21 -63 -42 -91 -84 -13 -19 -49 -69 -81 -110 -33 -41
-103 -133 -158 -205 -54 -72 -128 -167 -163 -213 l-63 -83 425 3 c411 3 425 4
452 24 49 36 68 70 68 123 0 114 -114 185 -216 135 -18 -9 -49 -36 -68 -61
-19 -24 -45 -57 -58 -71 l-23 -27 -35 38 c-24 26 -32 42 -26 50 62 82 160 210
255 334 64 83 117 154 117 157 0 3 -69 6 -152 6 -119 0 -160 -4 -183 -16z"/>
</g>
</svg>
